# xmcd CD database file
#
# Track frame offsets:
#	150
#	18367
#	35507
#	67830
#	84988
#	104739
#	133450
#	145536
#	165293
#	174939
#	191337
#	214444
#	243514
#
# Disc length: 3510 seconds
#
# Revision: 0
# Processed by: cddbd v1.5.2PL0 Copyright (c) Steve Scherf et al.
# Submitted via: CDex 1.70beta2
#
DISCID=ad0db40d
DTITLE=Ray Charles - The Genius At His Best CD10
DYEAR=1900
DGENRE=Blues
TTITLE0=(Night Time Is) The Right Time
TTITLE1=The Spirit-Feel
TTITLE2=A Fool For You
TTITLE3=In A Little Spanish Town
TTITLE4=Sherry
TTITLE5=I've Got A Woman
TTITLE6=Yes Indeed
TTITLE7=Talkin' 'Bout You
TTITLE8=Swanee River Rock (Talkin' 'Bout That River)
TTITLE9=Tell The Truth
TTITLE10=Frenesi
TTITLE11=Drown In My Own Tears
TTITLE12=What'd I Say
EXTD=
EXTT0=
EXTT1=
EXTT2=
EXTT3=
EXTT4=
EXTT5=
EXTT6=
EXTT7=
EXTT8=
EXTT9=
EXTT10=
EXTT11=
EXTT12=
PLAYORDER=
